<svg width="114" height="31" viewBox="0 0 114 31" fill="none" xmlns="http://www.w3.org/2000/svg">
<g clip-path="url(#clip0_4396_1436)">
<path d="M21.0947 13.0312H3.90723C3.47575 13.0312 3.12598 13.381 3.12598 13.8125V26.3125C3.12598 26.744 3.47575 27.0938 3.90723 27.0938H21.0947C21.5262 27.0938 21.876 26.744 21.876 26.3125V13.8125C21.876 13.381 21.5262 13.0312 21.0947 13.0312Z" stroke="#0A65CC" stroke-width="2.5" stroke-linecap="round" stroke-linejoin="round"/>
<path d="M16.4062 13.0312V11.4688C16.4062 11.0543 16.2416 10.6569 15.9486 10.3639C15.6556 10.0709 15.2582 9.90625 14.8438 9.90625H10.1562C9.74185 9.90625 9.34442 10.0709 9.0514 10.3639C8.75837 10.6569 8.59375 11.0543 8.59375 11.4688V13.0312" stroke="#0A65CC" stroke-width="2.5" stroke-linecap="round" stroke-linejoin="round"/>
<path d="M21.8756 18.335C19.0263 19.9834 15.7917 20.849 12.4999 20.8438C9.20858 20.849 5.97447 19.9837 3.12549 18.3358" stroke="#0A65CC" stroke-width="2.5" stroke-linecap="round" stroke-linejoin="round"/>
<path d="M11.3281 17.7188H13.6719" stroke="#0A65CC" stroke-width="2.5" stroke-linecap="round" stroke-linejoin="round"/>
</g>
<path d="M34.076 25V14.0909H36.0522V23.3434H40.8569V25H34.076ZM44.8413 25.1651C44.3228 25.1651 43.8558 25.0728 43.4403 24.8881C43.0284 24.6999 42.7017 24.4229 42.4602 24.0572C42.2223 23.6914 42.1033 23.2404 42.1033 22.7042C42.1033 22.2425 42.1886 21.8608 42.359 21.5589C42.5295 21.2571 42.7621 21.0156 43.0568 20.8345C43.3516 20.6534 43.6836 20.5167 44.0529 20.4244C44.4258 20.3285 44.8111 20.2592 45.2088 20.2166C45.6882 20.1669 46.0771 20.1225 46.3754 20.0835C46.6737 20.0408 46.8903 19.9769 47.0252 19.8917C47.1637 19.8029 47.233 19.6662 47.233 19.4815V19.4496C47.233 19.0483 47.114 18.7376 46.8761 18.5174C46.6381 18.2972 46.2955 18.1871 45.848 18.1871C45.3757 18.1871 45.0011 18.2901 44.7241 18.4961C44.4506 18.7021 44.266 18.9453 44.1701 19.2259L42.3697 18.9702C42.5117 18.473 42.7461 18.0575 43.0728 17.7237C43.3995 17.3864 43.799 17.1342 44.2713 16.9673C44.7436 16.7969 45.2656 16.7116 45.8374 16.7116C46.2315 16.7116 46.6239 16.7578 47.0146 16.8501C47.4052 16.9425 47.7621 17.0952 48.0852 17.3082C48.4084 17.5178 48.6676 17.8036 48.8629 18.1658C49.0618 18.5281 49.1612 18.9808 49.1612 19.5241V25H47.3075V23.8761H47.2436C47.1264 24.1033 46.9613 24.3164 46.7482 24.5153C46.5387 24.7106 46.2741 24.8686 45.9545 24.9893C45.6385 25.1065 45.2674 25.1651 44.8413 25.1651ZM45.342 23.7482C45.729 23.7482 46.0646 23.6719 46.3487 23.5192C46.6328 23.3629 46.8512 23.157 47.0039 22.9013C47.1602 22.6456 47.2383 22.3668 47.2383 22.065V21.1009C47.1779 21.1506 47.0749 21.1967 46.9293 21.2393C46.7873 21.282 46.6275 21.3192 46.4499 21.3512C46.2724 21.3832 46.0966 21.4116 45.9226 21.4364C45.7486 21.4613 45.5977 21.4826 45.4698 21.5004C45.1822 21.5394 44.9247 21.6033 44.6974 21.6921C44.4702 21.7809 44.2908 21.9052 44.1594 22.065C44.0281 22.2212 43.9624 22.4237 43.9624 22.6722C43.9624 23.0273 44.092 23.2955 44.3512 23.4766C44.6104 23.6577 44.9407 23.7482 45.342 23.7482ZM51.1854 25V14.0909H53.1136V18.1712H53.1935C53.293 17.9723 53.4332 17.761 53.6143 17.5373C53.7955 17.31 54.0405 17.1165 54.3494 16.9567C54.6584 16.7933 55.0526 16.7116 55.532 16.7116C56.1641 16.7116 56.734 16.8732 57.2418 17.1964C57.7532 17.516 58.158 17.9901 58.4563 18.6186C58.7582 19.2436 58.9091 20.0107 58.9091 20.9197C58.9091 21.8182 58.7617 22.5817 58.467 23.2102C58.1722 23.8388 57.771 24.3182 57.2631 24.6484C56.7553 24.9787 56.18 25.1438 55.5373 25.1438C55.0685 25.1438 54.6797 25.0657 54.3707 24.9094C54.0618 24.7532 53.8132 24.565 53.625 24.3448C53.4403 24.1211 53.2965 23.9098 53.1935 23.7109H53.0817V25H51.1854ZM53.0763 20.9091C53.0763 21.4382 53.1509 21.9016 53.3001 22.2994C53.4528 22.6971 53.6712 23.0078 53.9553 23.2315C54.2429 23.4517 54.5909 23.5618 54.9993 23.5618C55.4254 23.5618 55.7823 23.4482 56.07 23.2209C56.3576 22.9901 56.5742 22.6758 56.7198 22.2781C56.869 21.8768 56.9435 21.4205 56.9435 20.9091C56.9435 20.4013 56.8707 19.9503 56.7251 19.5561C56.5795 19.1619 56.3629 18.853 56.0753 18.6293C55.7876 18.4055 55.429 18.2937 54.9993 18.2937C54.5874 18.2937 54.2376 18.402 53.9499 18.6186C53.6623 18.8352 53.4439 19.1388 53.2947 19.5295C53.1491 19.9201 53.0763 20.38 53.0763 20.9091ZM64.1173 25.1598C63.3183 25.1598 62.6258 24.984 62.0399 24.6325C61.4539 24.2809 60.9994 23.7891 60.6762 23.157C60.3566 22.5249 60.1968 21.7862 60.1968 20.9411C60.1968 20.0959 60.3566 19.3555 60.6762 18.7198C60.9994 18.0842 61.4539 17.5906 62.0399 17.239C62.6258 16.8874 63.3183 16.7116 64.1173 16.7116C64.9163 16.7116 65.6088 16.8874 66.1947 17.239C66.7806 17.5906 67.2334 18.0842 67.553 18.7198C67.8762 19.3555 68.0377 20.0959 68.0377 20.9411C68.0377 21.7862 67.8762 22.5249 67.553 23.157C67.2334 23.7891 66.7806 24.2809 66.1947 24.6325C65.6088 24.984 64.9163 25.1598 64.1173 25.1598ZM64.1279 23.6151C64.5612 23.6151 64.9234 23.4961 65.2146 23.2582C65.5058 23.0167 65.7224 22.6935 65.8644 22.2887C66.01 21.8839 66.0828 21.4329 66.0828 20.9357C66.0828 20.435 66.01 19.9822 65.8644 19.5774C65.7224 19.169 65.5058 18.8441 65.2146 18.6026C64.9234 18.3612 64.5612 18.2404 64.1279 18.2404C63.684 18.2404 63.3147 18.3612 63.02 18.6026C62.7288 18.8441 62.5104 19.169 62.3648 19.5774C62.2227 19.9822 62.1517 20.435 62.1517 20.9357C62.1517 21.4329 62.2227 21.8839 62.3648 22.2887C62.5104 22.6935 62.7288 23.0167 63.02 23.2582C63.3147 23.4961 63.684 23.6151 64.1279 23.6151ZM74.8892 21.5589V16.8182H76.8175V25H74.9478V23.5458H74.8626C74.6779 24.0039 74.3743 24.3786 73.9517 24.6697C73.5327 24.9609 73.016 25.1065 72.4016 25.1065C71.8654 25.1065 71.3913 24.9876 70.9794 24.7496C70.571 24.5082 70.2514 24.1584 70.0206 23.7003C69.7898 23.2386 69.6744 22.6811 69.6744 22.0277V16.8182H71.6026V21.7294C71.6026 22.2479 71.7447 22.6598 72.0288 22.9652C72.3129 23.2706 72.6857 23.4233 73.1474 23.4233C73.4315 23.4233 73.7067 23.354 73.973 23.2156C74.2393 23.0771 74.4577 22.8711 74.6282 22.5977C74.8022 22.3207 74.8892 21.9744 74.8892 21.5589ZM78.8003 25V16.8182H80.67V18.1818H80.7552C80.9044 17.7095 81.1601 17.3455 81.5223 17.0898C81.8881 16.8306 82.3053 16.701 82.7741 16.701C82.8806 16.701 82.9996 16.7063 83.1309 16.717C83.2659 16.7241 83.3778 16.7365 83.4665 16.7543V18.5281C83.3849 18.4996 83.2552 18.4748 83.0777 18.4535C82.9037 18.4286 82.735 18.4162 82.5716 18.4162C82.2201 18.4162 81.904 18.4925 81.6235 18.6452C81.3465 18.7944 81.1281 19.0021 80.9683 19.2685C80.8085 19.5348 80.7286 19.842 80.7286 20.19V25H78.8003ZM84.8328 25V14.0909H86.809V23.3434H91.6137V25H84.8328ZM93.2437 25V16.8182H95.172V25H93.2437ZM94.2132 15.657C93.9078 15.657 93.645 15.5558 93.4248 15.3533C93.2046 15.1474 93.0945 14.9006 93.0945 14.6129C93.0945 14.3217 93.2046 14.0749 93.4248 13.8725C93.645 13.6665 93.9078 13.5636 94.2132 13.5636C94.5221 13.5636 94.7849 13.6665 95.0015 13.8725C95.2217 14.0749 95.3318 14.3217 95.3318 14.6129C95.3318 14.9006 95.2217 15.1474 95.0015 15.3533C94.7849 15.5558 94.5221 15.657 94.2132 15.657ZM99.0831 20.206V25H97.1548V16.8182H98.9979V18.2085H99.0938C99.282 17.7504 99.582 17.3864 99.994 17.1165C100.409 16.8466 100.923 16.7116 101.533 16.7116C102.098 16.7116 102.59 16.8324 103.009 17.0739C103.431 17.3153 103.758 17.6651 103.989 18.1232C104.223 18.5813 104.339 19.1371 104.335 19.7905V25H102.407V20.0888C102.407 19.5419 102.265 19.114 101.981 18.805C101.7 18.4961 101.311 18.3416 100.814 18.3416C100.477 18.3416 100.177 18.4162 99.9141 18.5653C99.6548 18.7109 99.4506 18.9222 99.3015 19.1992C99.1559 19.4762 99.0831 19.8118 99.0831 20.206ZM108.053 22.4325L108.048 20.1048H108.357L111.297 16.8182H113.55L109.934 20.8452H109.534L108.053 22.4325ZM106.295 25V14.0909H108.224V25H106.295ZM111.43 25L108.767 21.2766L110.067 19.9183L113.737 25H111.43Z" fill="#18191C"/>
<defs>
<clipPath id="clip0_4396_1436">
<rect width="25" height="25" fill="white" transform="translate(0 6)"/>
</clipPath>
</defs>
</svg>
