<svg width="92" height="14" viewBox="0 0 92 14" fill="none" xmlns="http://www.w3.org/2000/svg">
<path d="M0.836 13C0.716 13 0.614 12.958 0.53 12.874C0.446 12.79 0.404 12.688 0.404 12.568V0.85C0.404 0.717999 0.446 0.609999 0.53 0.526C0.614 0.441999 0.716 0.399999 0.836 0.399999H5.228C6.44 0.399999 7.436 0.585999 8.216 0.957999C9.008 1.33 9.602 1.882 9.998 2.614C10.406 3.346 10.616 4.24 10.628 5.296C10.652 5.824 10.664 6.292 10.664 6.7C10.664 7.108 10.652 7.57 10.628 8.086C10.604 9.202 10.4 10.126 10.016 10.858C9.632 11.578 9.05 12.118 8.27 12.478C7.502 12.826 6.518 13 5.318 13H0.836ZM2.906 10.93H5.228C5.9 10.93 6.446 10.834 6.866 10.642C7.286 10.45 7.592 10.144 7.784 9.724C7.988 9.292 8.096 8.728 8.108 8.032C8.12 7.672 8.126 7.36 8.126 7.096C8.138 6.82 8.138 6.55 8.126 6.286C8.126 6.01 8.12 5.698 8.108 5.35C8.084 4.366 7.838 3.64 7.37 3.172C6.902 2.704 6.158 2.47 5.138 2.47H2.906V10.93ZM15.5623 13.18C14.9383 13.18 14.3743 13.06 13.8703 12.82C13.3663 12.568 12.9643 12.238 12.6643 11.83C12.3763 11.41 12.2323 10.942 12.2323 10.426C12.2323 9.586 12.5683 8.92 13.2403 8.428C13.9243 7.924 14.8243 7.588 15.9403 7.42L18.4063 7.06V6.682C18.4063 6.178 18.2803 5.788 18.0283 5.512C17.7763 5.236 17.3443 5.098 16.7323 5.098C16.3003 5.098 15.9463 5.188 15.6703 5.368C15.4063 5.536 15.2083 5.764 15.0763 6.052C14.9803 6.208 14.8423 6.286 14.6623 6.286H13.2403C13.1083 6.286 13.0063 6.25 12.9343 6.178C12.8743 6.106 12.8442 6.01 12.8442 5.89C12.8563 5.698 12.9343 5.464 13.0783 5.188C13.2223 4.912 13.4503 4.648 13.7623 4.396C14.0743 4.132 14.4763 3.91 14.9683 3.73C15.4603 3.55 16.0543 3.46 16.7503 3.46C17.5063 3.46 18.1423 3.556 18.6583 3.748C19.1863 3.928 19.6063 4.174 19.9183 4.486C20.2303 4.798 20.4583 5.164 20.6023 5.584C20.7463 6.004 20.8183 6.448 20.8183 6.916V12.568C20.8183 12.688 20.7763 12.79 20.6923 12.874C20.6083 12.958 20.5063 13 20.3863 13H18.9283C18.7963 13 18.6883 12.958 18.6043 12.874C18.5323 12.79 18.4963 12.688 18.4963 12.568V11.866C18.3403 12.094 18.1303 12.31 17.8663 12.514C17.6023 12.706 17.2783 12.868 16.8943 13C16.5223 13.12 16.0783 13.18 15.5623 13.18ZM16.1743 11.47C16.5943 11.47 16.9723 11.38 17.3083 11.2C17.6563 11.02 17.9263 10.744 18.1183 10.372C18.3223 9.988 18.4243 9.508 18.4243 8.932V8.554L16.6243 8.842C15.9163 8.95 15.3883 9.124 15.0403 9.364C14.6923 9.604 14.5183 9.898 14.5183 10.246C14.5183 10.51 14.5963 10.738 14.7523 10.93C14.9203 11.11 15.1303 11.248 15.3823 11.344C15.6343 11.428 15.8983 11.47 16.1743 11.47ZM26.6735 13.18C25.9535 13.18 25.3355 13.096 24.8195 12.928C24.3155 12.76 23.9015 12.55 23.5775 12.298C23.2535 12.046 23.0135 11.794 22.8575 11.542C22.7015 11.29 22.6175 11.08 22.6055 10.912C22.5935 10.78 22.6295 10.678 22.7135 10.606C22.8095 10.522 22.9115 10.48 23.0195 10.48H24.4415C24.4895 10.48 24.5315 10.486 24.5675 10.498C24.6035 10.51 24.6515 10.546 24.7115 10.606C24.8675 10.738 25.0295 10.876 25.1975 11.02C25.3775 11.164 25.5875 11.29 25.8275 11.398C26.0675 11.494 26.3675 11.542 26.7275 11.542C27.1955 11.542 27.5855 11.452 27.8975 11.272C28.2215 11.08 28.3835 10.81 28.3835 10.462C28.3835 10.21 28.3115 10.006 28.1675 9.85C28.0355 9.694 27.7835 9.556 27.4115 9.436C27.0395 9.304 26.5115 9.166 25.8275 9.022C25.1555 8.866 24.5975 8.668 24.1535 8.428C23.7095 8.188 23.3795 7.888 23.1635 7.528C22.9475 7.168 22.8395 6.748 22.8395 6.268C22.8395 5.8 22.9775 5.356 23.2535 4.936C23.5415 4.504 23.9615 4.15 24.5135 3.874C25.0775 3.598 25.7735 3.46 26.6015 3.46C27.2495 3.46 27.8135 3.544 28.2935 3.712C28.7735 3.868 29.1695 4.066 29.4815 4.306C29.8055 4.546 30.0515 4.792 30.2195 5.044C30.3875 5.284 30.4775 5.494 30.4895 5.674C30.5015 5.806 30.4655 5.914 30.3815 5.998C30.2975 6.07 30.2015 6.106 30.0935 6.106H28.7615C28.7015 6.106 28.6475 6.094 28.5995 6.07C28.5515 6.046 28.5035 6.016 28.4555 5.98C28.3235 5.86 28.1795 5.734 28.0235 5.602C27.8675 5.47 27.6755 5.356 27.4475 5.26C27.2315 5.152 26.9435 5.098 26.5835 5.098C26.1275 5.098 25.7795 5.2 25.5395 5.404C25.2995 5.596 25.1795 5.842 25.1795 6.142C25.1795 6.346 25.2335 6.526 25.3415 6.682C25.4615 6.826 25.6955 6.964 26.0435 7.096C26.3915 7.228 26.9195 7.366 27.6275 7.51C28.4315 7.654 29.0675 7.87 29.5355 8.158C30.0155 8.434 30.3515 8.758 30.5435 9.13C30.7475 9.49 30.8495 9.892 30.8495 10.336C30.8495 10.876 30.6875 11.362 30.3635 11.794C30.0515 12.226 29.5835 12.568 28.9595 12.82C28.3475 13.06 27.5855 13.18 26.6735 13.18ZM33.1575 13C33.0375 13 32.9355 12.958 32.8515 12.874C32.7675 12.79 32.7255 12.688 32.7255 12.568V0.651999C32.7255 0.531999 32.7675 0.429999 32.8515 0.346C32.9355 0.261999 33.0375 0.219999 33.1575 0.219999H34.7595C34.8915 0.219999 34.9935 0.261999 35.0655 0.346C35.1495 0.429999 35.1915 0.531999 35.1915 0.651999V4.756C35.5155 4.372 35.9115 4.06 36.3795 3.82C36.8475 3.58 37.4235 3.46 38.1075 3.46C38.8395 3.46 39.4755 3.628 40.0155 3.964C40.5675 4.288 40.9935 4.75 41.2935 5.35C41.5935 5.95 41.7435 6.67 41.7435 7.51V12.568C41.7435 12.688 41.7015 12.79 41.6175 12.874C41.5335 12.958 41.4315 13 41.3115 13H39.6915C39.5715 13 39.4695 12.958 39.3855 12.874C39.3015 12.79 39.2595 12.688 39.2595 12.568V7.618C39.2595 6.922 39.0855 6.376 38.7375 5.98C38.4015 5.584 37.9095 5.386 37.2615 5.386C36.6375 5.386 36.1335 5.584 35.7495 5.98C35.3775 6.376 35.1915 6.922 35.1915 7.618V12.568C35.1915 12.688 35.1495 12.79 35.0655 12.874C34.9935 12.958 34.8915 13 34.7595 13H33.1575ZM49.2118 13.18C48.5158 13.18 47.9338 13.06 47.4658 12.82C47.0098 12.58 46.6318 12.274 46.3318 11.902V12.568C46.3318 12.688 46.2898 12.79 46.2058 12.874C46.1338 12.958 46.0318 13 45.8998 13H44.4778C44.3578 13 44.2558 12.958 44.1718 12.874C44.0878 12.79 44.0458 12.688 44.0458 12.568V0.651999C44.0458 0.531999 44.0878 0.429999 44.1718 0.346C44.2558 0.261999 44.3578 0.219999 44.4778 0.219999H46.0078C46.1398 0.219999 46.2418 0.261999 46.3138 0.346C46.3978 0.429999 46.4398 0.531999 46.4398 0.651999V4.648C46.7398 4.3 47.1118 4.018 47.5558 3.802C48.0118 3.574 48.5638 3.46 49.2118 3.46C49.8478 3.46 50.3998 3.568 50.8678 3.784C51.3358 4 51.7258 4.306 52.0378 4.702C52.3618 5.086 52.6078 5.536 52.7758 6.052C52.9438 6.568 53.0338 7.126 53.0458 7.726C53.0578 7.942 53.0638 8.14 53.0638 8.32C53.0638 8.488 53.0578 8.68 53.0458 8.896C53.0218 9.52 52.9258 10.096 52.7578 10.624C52.5898 11.14 52.3498 11.59 52.0378 11.974C51.7258 12.358 51.3358 12.658 50.8678 12.874C50.3998 13.078 49.8478 13.18 49.2118 13.18ZM48.5458 11.254C49.0618 11.254 49.4638 11.146 49.7518 10.93C50.0398 10.702 50.2438 10.408 50.3638 10.048C50.4958 9.688 50.5738 9.292 50.5978 8.86C50.6218 8.5 50.6218 8.14 50.5978 7.78C50.5738 7.348 50.4958 6.952 50.3638 6.592C50.2438 6.232 50.0398 5.944 49.7518 5.728C49.4638 5.5 49.0618 5.386 48.5458 5.386C48.0658 5.386 47.6758 5.494 47.3758 5.71C47.0758 5.926 46.8478 6.202 46.6918 6.538C46.5358 6.862 46.4518 7.204 46.4398 7.564C46.4278 7.78 46.4218 8.014 46.4218 8.266C46.4218 8.506 46.4278 8.734 46.4398 8.95C46.4638 9.322 46.5418 9.688 46.6738 10.048C46.8178 10.396 47.0398 10.684 47.3398 10.912C47.6518 11.14 48.0538 11.254 48.5458 11.254ZM59.2069 13.18C58.2469 13.18 57.4369 13.012 56.7769 12.676C56.1289 12.34 55.6309 11.866 55.2829 11.254C54.9469 10.642 54.7549 9.928 54.7069 9.112C54.6949 8.896 54.6889 8.632 54.6889 8.32C54.6889 8.008 54.6949 7.744 54.7069 7.528C54.7549 6.7 54.9529 5.986 55.3009 5.386C55.6609 4.774 56.1649 4.3 56.8129 3.964C57.4729 3.628 58.2709 3.46 59.2069 3.46C60.1429 3.46 60.9349 3.628 61.5829 3.964C62.2429 4.3 62.7469 4.774 63.0949 5.386C63.4549 5.986 63.6589 6.7 63.7069 7.528C63.7189 7.744 63.7249 8.008 63.7249 8.32C63.7249 8.632 63.7189 8.896 63.7069 9.112C63.6589 9.928 63.4609 10.642 63.1129 11.254C62.7769 11.866 62.2789 12.34 61.6189 12.676C60.9709 13.012 60.1669 13.18 59.2069 13.18ZM59.2069 11.398C59.8429 11.398 60.3349 11.2 60.6829 10.804C61.0309 10.396 61.2229 9.802 61.2589 9.022C61.2709 8.842 61.2769 8.608 61.2769 8.32C61.2769 8.032 61.2709 7.798 61.2589 7.618C61.2229 6.85 61.0309 6.262 60.6829 5.854C60.3349 5.446 59.8429 5.242 59.2069 5.242C58.5709 5.242 58.0789 5.446 57.7309 5.854C57.3829 6.262 57.1909 6.85 57.1549 7.618C57.1429 7.798 57.1369 8.032 57.1369 8.32C57.1369 8.608 57.1429 8.842 57.1549 9.022C57.1909 9.802 57.3829 10.396 57.7309 10.804C58.0789 11.2 58.5709 11.398 59.2069 11.398ZM68.4373 13.18C67.8133 13.18 67.2493 13.06 66.7453 12.82C66.2413 12.568 65.8393 12.238 65.5393 11.83C65.2513 11.41 65.1073 10.942 65.1073 10.426C65.1073 9.586 65.4433 8.92 66.1153 8.428C66.7993 7.924 67.6993 7.588 68.8153 7.42L71.2813 7.06V6.682C71.2813 6.178 71.1553 5.788 70.9033 5.512C70.6513 5.236 70.2193 5.098 69.6073 5.098C69.1753 5.098 68.8213 5.188 68.5453 5.368C68.2813 5.536 68.0833 5.764 67.9513 6.052C67.8553 6.208 67.7173 6.286 67.5373 6.286H66.1153C65.9833 6.286 65.8813 6.25 65.8093 6.178C65.7493 6.106 65.7192 6.01 65.7192 5.89C65.7313 5.698 65.8093 5.464 65.9533 5.188C66.0973 4.912 66.3253 4.648 66.6373 4.396C66.9493 4.132 67.3513 3.91 67.8433 3.73C68.3353 3.55 68.9293 3.46 69.6253 3.46C70.3813 3.46 71.0173 3.556 71.5333 3.748C72.0613 3.928 72.4813 4.174 72.7933 4.486C73.1053 4.798 73.3333 5.164 73.4773 5.584C73.6213 6.004 73.6933 6.448 73.6933 6.916V12.568C73.6933 12.688 73.6513 12.79 73.5673 12.874C73.4833 12.958 73.3813 13 73.2613 13H71.8033C71.6713 13 71.5633 12.958 71.4793 12.874C71.4073 12.79 71.3713 12.688 71.3713 12.568V11.866C71.2153 12.094 71.0053 12.31 70.7413 12.514C70.4773 12.706 70.1533 12.868 69.7693 13C69.3973 13.12 68.9533 13.18 68.4373 13.18ZM69.0493 11.47C69.4693 11.47 69.8473 11.38 70.1833 11.2C70.5313 11.02 70.8013 10.744 70.9933 10.372C71.1973 9.988 71.2993 9.508 71.2993 8.932V8.554L69.4993 8.842C68.7913 8.95 68.2633 9.124 67.9153 9.364C67.5673 9.604 67.3933 9.898 67.3933 10.246C67.3933 10.51 67.4713 10.738 67.6273 10.93C67.7953 11.11 68.0053 11.248 68.2573 11.344C68.5093 11.428 68.7733 11.47 69.0493 11.47ZM76.4345 13C76.3145 13 76.2125 12.958 76.1285 12.874C76.0445 12.79 76.0025 12.688 76.0025 12.568V4.09C76.0025 3.958 76.0445 3.85 76.1285 3.766C76.2125 3.682 76.3145 3.64 76.4345 3.64H77.8925C78.0125 3.64 78.1145 3.682 78.1985 3.766C78.2945 3.85 78.3425 3.958 78.3425 4.09V4.828C78.6185 4.444 78.9725 4.15 79.4045 3.946C79.8485 3.742 80.3585 3.64 80.9345 3.64H81.6725C81.8045 3.64 81.9065 3.682 81.9785 3.766C82.0625 3.85 82.1045 3.952 82.1045 4.072V5.368C82.1045 5.488 82.0625 5.59 81.9785 5.674C81.9065 5.758 81.8045 5.8 81.6725 5.8H80.2685C79.6925 5.8 79.2425 5.962 78.9185 6.286C78.6065 6.61 78.4505 7.054 78.4505 7.618V12.568C78.4505 12.688 78.4085 12.79 78.3245 12.874C78.2405 12.958 78.1325 13 78.0005 13H76.4345ZM86.8417 13.18C86.2177 13.18 85.6657 13.078 85.1857 12.874C84.7177 12.658 84.3277 12.358 84.0157 11.974C83.7037 11.59 83.4637 11.14 83.2957 10.624C83.1277 10.096 83.0317 9.52 83.0077 8.896C82.9957 8.68 82.9897 8.488 82.9897 8.32C82.9897 8.14 82.9957 7.942 83.0077 7.726C83.0317 7.126 83.1217 6.568 83.2777 6.052C83.4457 5.536 83.6857 5.086 83.9977 4.702C84.3217 4.306 84.7177 4 85.1857 3.784C85.6657 3.568 86.2177 3.46 86.8417 3.46C87.4897 3.46 88.0357 3.574 88.4797 3.802C88.9357 4.018 89.3137 4.3 89.6137 4.648V0.651999C89.6137 0.531999 89.6497 0.429999 89.7217 0.346C89.8057 0.261999 89.9137 0.219999 90.0457 0.219999H91.5757C91.6957 0.219999 91.7977 0.261999 91.8817 0.346C91.9657 0.429999 92.0077 0.531999 92.0077 0.651999V12.568C92.0077 12.688 91.9657 12.79 91.8817 12.874C91.7977 12.958 91.6957 13 91.5757 13H90.1537C90.0217 13 89.9137 12.958 89.8297 12.874C89.7577 12.79 89.7217 12.688 89.7217 12.568V11.902C89.4217 12.274 89.0377 12.58 88.5697 12.82C88.1137 13.06 87.5377 13.18 86.8417 13.18ZM87.5077 11.254C88.0117 11.254 88.4137 11.14 88.7137 10.912C89.0137 10.684 89.2357 10.396 89.3797 10.048C89.5237 9.688 89.6017 9.322 89.6137 8.95C89.6257 8.734 89.6317 8.506 89.6317 8.266C89.6317 8.014 89.6257 7.78 89.6137 7.564C89.6017 7.204 89.5177 6.862 89.3617 6.538C89.2057 6.202 88.9777 5.926 88.6777 5.71C88.3777 5.494 87.9877 5.386 87.5077 5.386C87.0037 5.386 86.6017 5.5 86.3017 5.728C86.0137 5.944 85.8037 6.232 85.6717 6.592C85.5397 6.952 85.4617 7.348 85.4377 7.78C85.4257 8.14 85.4257 8.5 85.4377 8.86C85.4617 9.292 85.5397 9.688 85.6717 10.048C85.8037 10.408 86.0137 10.702 86.3017 10.93C86.6017 11.146 87.0037 11.254 87.5077 11.254Z" fill="#303C6C"/>
</svg>
